<?xml version="1.0" encoding="UTF-8" standalone="no"?>
<!DOCTYPE svg PUBLIC "-//W3C//DTD SVG 20010904//EN"
"http://www.w3.org/TR/2001/REC-SVG-20010904/DTD/svg10.dtd">
<!-- Created with Inkscape (http://www.inkscape.org/) -->
<svg
   id="svg1"
   sodipodi:version="0.32"
   inkscape:version="0.38.1"
   width="128.00000pt"
   height="128.00000pt"
   sodipodi:docbase="/home/francois/.themes/Default/xfsm4"
   sodipodi:docname="skip_icon.svg"
   xmlns="http://www.w3.org/2000/svg"
   xmlns:inkscape="http://www.inkscape.org/namespaces/inkscape"
   xmlns:sodipodi="http://sodipodi.sourceforge.net/DTD/sodipodi-0.dtd"
   xmlns:xlink="http://www.w3.org/1999/xlink">
  <defs
     id="defs3">
    <linearGradient
       id="linearGradient843">
      <stop
         style="stop-color:#000;stop-opacity:1;"
         offset="0"
         id="stop844" />
      <stop
         style="stop-color:#fff;stop-opacity:1;"
         offset="1"
         id="stop845" />
    </linearGradient>
    <linearGradient
       xlink:href="#linearGradient843"
       id="linearGradient846"
       x1="0.90697676"
       y1="0.89054728"
       x2="0.38372093"
       y2="0.20895523" />
  </defs>
  <sodipodi:namedview
     id="base"
     pagecolor="#ffffff"
     bordercolor="#666666"
     borderopacity="1.0"
     inkscape:pageopacity="0.0"
     inkscape:pageshadow="2"
     inkscape:zoom="5.9921875"
     inkscape:cx="64.000000"
     inkscape:cy="64.000000"
     inkscape:window-width="1109"
     inkscape:window-height="906"
     showgrid="true"
     snaptogrid="false"
     gridspacingy="1.0000000mm"
     gridspacingx="1.0000000mm"
     inkscape:window-x="117"
     inkscape:window-y="34" />
  <path
     sodipodi:type="arc"
     style="fill:#999999;fill-rule:evenodd;stroke:#999999;stroke-width:1.2607873;fill-opacity:1.0000000;stroke-opacity:1.0000000;stroke-dasharray:none;"
     id="path831"
     sodipodi:cx="100.98425"
     sodipodi:cy="23.582678"
     sodipodi:rx="19.488190"
     sodipodi:ry="19.488190"
     d="M 120.47244 23.582678 A 19.488190 19.488190 0 1 0 81.496063,23.582678 A 19.488190 19.488190 0 1 0 120.47244 23.582678 z"
     transform="matrix(0.822557,4.515184e-2,-0.465747,0.463909,58.77116,50.20718)" />
  <path
     style="fill:none;fill-rule:evenodd;stroke:#999999;stroke-width:8.4571276;stroke-linecap:round;stroke-linejoin:round;stroke-opacity:1.0000000;"
     d="M 122.06753,74.457828 L 120.41725,76.101601 L 118.76697,77.745374 L 87.584947,81.236811 L 63.110378,90.299514"
     id="path832"
     sodipodi:nodetypes="ccccc" />
  <path
     style="fill:none;fill-rule:evenodd;stroke:#999999;stroke-width:8.4571276;stroke-linecap:round;stroke-linejoin:round;stroke-opacity:1.0000000;"
     d="M 122.06753,74.457828 L 118.76697,77.745374 L 127.61700,90.371693 L 155.00613,81.468977"
     id="path833"
     sodipodi:nodetypes="cccc" />
  <path
     style="fill:none;fill-rule:evenodd;stroke:#999999;stroke-width:8.4571276;stroke-linecap:round;stroke-linejoin:round;stroke-opacity:1.0000000;"
     d="M 117.95240,78.268128 L 79.825843,98.154500"
     id="path834" />
  <path
     style="fill:none;fill-rule:evenodd;stroke:#999999;stroke-width:7.9315567;stroke-linecap:round;stroke-linejoin:round;stroke-opacity:1.0000000;"
     d="M 79.825843,98.154500 L 46.221565,110.18477 L 20.376394,105.29736 L 11.271121,108.70570"
     id="path835"
     sodipodi:nodetypes="cccc" />
  <path
     style="fill:none;fill-rule:evenodd;stroke:#999999;stroke-width:8.4571276;stroke-linecap:round;stroke-linejoin:round;stroke-opacity:1.0000000;"
     d="M 79.927398,97.929633 L 100.72017,107.97323 L 99.990281,125.27531 L 111.08952,120.11774"
     id="path836"
     sodipodi:nodetypes="cccc" />
  <path
     sodipodi:type="arc"
     style="fill-rule:evenodd;stroke:none;stroke-width:1.2528596;stroke-opacity:1.0000000;fill:#51516b;fill-opacity:1.0000000;stroke-dasharray:none;"
     id="path825"
     sodipodi:cx="100.98425"
     sodipodi:cy="23.582678"
     sodipodi:rx="19.488190"
     sodipodi:ry="19.488190"
     d="M 120.47244 23.582678 A 19.488190 19.488190 0 1 0 81.496063,23.582678 A 19.488190 19.488190 0 1 0 120.47244 23.582678 z"
     transform="matrix(0.756772,0.000000,0.000000,0.806980,-0.788815,5.808035)" />
  <path
     style="fill:none;fill-rule:evenodd;stroke:#54526b;stroke-width:10.415699;stroke-linecap:round;stroke-linejoin:round;stroke-opacity:1.0000000;"
     d="M 75.633235,40.061006 L 75.633235,42.920384 L 75.633235,45.779763 L 51.499954,54.357899 L 41.430257,70.053936"
     id="path826"
     sodipodi:nodetypes="ccccc" />
  <path
     style="fill:none;fill-rule:evenodd;stroke:#54526b;stroke-width:10.415699;stroke-linecap:round;stroke-linejoin:round;stroke-opacity:1.0000000;"
     d="M 75.633235,40.061006 L 75.633235,45.779763 L 94.403562,65.795413 L 110.49241,48.639141"
     id="path827"
     sodipodi:nodetypes="cccc" />
  <path
     style="fill:none;fill-rule:evenodd;stroke:#54526b;stroke-width:10.415699;stroke-linecap:round;stroke-linejoin:round;stroke-opacity:1.0000000;"
     d="M 75.380586,46.715326 L 59.544380,82.951683"
     id="path828" />
  <path
     style="fill:none;fill-rule:evenodd;stroke:#51516b;stroke-width:9.7684116;stroke-linecap:round;stroke-linejoin:round;stroke-opacity:1.0000000;"
     d="M 59.544383,82.951684 C 53.287607,90.576693 47.030831,98.201697 40.774055,105.82671 C 31.835802,103.92046 22.897551,102.01420 13.959299,100.10794 C 12.529454,102.96733 11.725423,105.20090 11.755812,108.47748"
     id="path845"
     sodipodi:nodetypes="cccc" />
  <path
     style="fill:none;fill-rule:evenodd;stroke:#51516b;stroke-width:10.415699;stroke-linecap:round;stroke-linejoin:round;stroke-opacity:1.0000000;"
     d="M 59.436083,82.571760 C 68.410435,87.464033 77.384787,92.356306 86.359137,97.248577 C 91.195863,106.77904 96.032597,116.30950 100.86932,125.83996 C 103.86653,123.98982 106.86374,122.13967 109.86095,120.28953"
     id="path844" />
  <path
     style="fill:#34bbe5;fill-rule:evenodd;stroke:#000000;stroke-opacity:1.0000000;stroke-width:1pt;stroke-linejoin:miter;stroke-linecap:butt;fill-opacity:1.0000000;"
     d="M 53.194263,75.306389 C 53.194263,75.306389 46.936114,83.233376 46.936115,86.571056 C 45.475880,92.411995 46.101695,88.239893 38.800522,99.087353 C 24.198175,95.123859 22.737940,95.332464 21.903520,95.332464 C 19.608866,96.584093 15.436766,100.96480 19.817470,107.43155 C 24.615384,110.14341 41.929596,113.06389 43.181226,112.22947 C 44.641461,111.39505 66.954969,96.653613 61.355932,95.019559 C 55.280313,93.455021 48.500653,88.865710 49.647980,88.239896 C 49.856584,93.037809 79.269883,100.13038 81.773142,102.42503 C 82.607562,105.34550 90.951760,123.28553 92.411995,124.32855 C 93.246415,119.32204 97.627119,113.27249 102.84224,115.56714 C 105.76271,117.23597 93.872229,97.209908 91.577575,92.829205 C 88.031290,89.074315 78.852673,84.902217 74.889179,83.859192 C 72.594524,79.895697 53.194263,75.306389 53.194263,75.306389 z "
     id="path838"
     sodipodi:nodetypes="ccccccsccccccc" />
  <path
     style="fill:#ffffff;fill-rule:evenodd;stroke:#000000;stroke-opacity:1.0000000;stroke-width:1.2500000;stroke-linejoin:round;stroke-linecap:round;fill-opacity:1.0000000;stroke-dasharray:none;"
     d="M 55.071708,46.936115 C 55.071708,46.936115 50.691004,54.237288 59.035202,59.035201 C 61.747067,59.452411 79.478488,45.267274 66.544980,54.445893 C 56.949153,74.680574 51.108214,71.342894 52.359844,75.723599 C 60.495437,80.312908 62.164276,83.024775 75.306389,83.233377 C 80.104302,82.607562 81.355932,65.084746 80.938722,49.022164 C 80.521513,66.127771 80.730117,58.826597 85.945241,66.336376 C 84.067797,58.409387 89.074316,56.323337 92.411994,54.654498 C 91.994784,52.151238 89.282920,44.224250 81.355932,42.555410 C 84.485007,47.144720 75.514994,47.770535 71.968710,46.101696 C 66.962191,42.764016 70.299870,41.720991 67.170795,41.512386 C 62.790091,42.138201 55.071708,46.936115 55.071708,46.936115 z "
     id="path837"
     sodipodi:nodetypes="cccccccccccc" />
  <path
     style="fill-rule:evenodd;stroke:#ffffff;stroke-width:1.0000000pt;fill:#ffffff;fill-opacity:0.50322580;stroke-opacity:0.50322580;"
     d="M 88.239896,93.663624 L 61.329857,83.024770 L 60.704042,84.067795 L 87.822686,94.706649 L 88.239896,93.663624 z "
     id="path840"
     sodipodi:nodetypes="ccccc" />
  <path
     style="fill:#ffffff;fill-rule:evenodd;stroke:#ffffff;stroke-width:1.0000000pt;fill-opacity:0.49677420;stroke-opacity:0.49677420;"
     d="M 38.057814,101.00193 L 22.713167,97.308544 L 22.020414,98.007200 L 37.363273,101.67332 L 38.057814,101.00193 z "
     id="path841"
     sodipodi:nodetypes="ccccc" />
  <path
     style="fill:#ffffff;fill-rule:evenodd;stroke:none;stroke-width:1.0000000pt;fill-opacity:0.46451613;stroke-opacity:0.49677420;"
     d="M 74.299986,11.014648 C 69.707186,12.453669 65.114386,15.144320 63.650660,20.338231 L 62.984294,24.019520 L 79.659905,11.761128 C 77.873265,10.677882 76.712441,10.637660 74.299986,11.014648 z "
     id="path842"
     sodipodi:nodetypes="ccccc" />
</svg>
