<?xml version="1.0" encoding="UTF-8" standalone="no"?>
<!DOCTYPE svg PUBLIC "-//W3C//DTD SVG 1.0//EN"
"http://www.w3.org/TR/2001/REC-SVG-20010904/DTD/svg10.dtd">
<!-- Created with Inkscape (http://www.inkscape.org/) -->
<svg
   id="svg1"
   sodipodi:version="0.32"
   inkscape:version="0.38.1"
   xmlns="http://www.w3.org/2000/svg"
   xmlns:sodipodi="http://sodipodi.sourceforge.net/DTD/sodipodi-0.dtd"
   xmlns:inkscape="http://www.inkscape.org/namespaces/inkscape"
   xmlns:xlink="http://www.w3.org/1999/xlink"
   width="128.00000pt"
   height="128.00000pt"
   sodipodi:docbase="/home/francois"
   sodipodi:docname="arrow.svg">
  <defs
     id="defs3" />
  <sodipodi:namedview
     id="base"
     pagecolor="#ffffff"
     bordercolor="#666666"
     borderopacity="1.0"
     inkscape:pageopacity="0.0"
     inkscape:pageshadow="2"
     inkscape:zoom="6.2812500"
     inkscape:cx="64.000000"
     inkscape:cy="64.000000"
     inkscape:window-width="948"
     inkscape:window-height="906"
     showgrid="true"
     snaptogrid="true"
     gridspacingx="1.0000000mm"
     gridspacingy="1.0000000mm"
     inkscape:window-x="27"
     inkscape:window-y="34" />
  <path
     style="fill:#000000;fill-rule:evenodd;stroke:none;stroke-width:2.8826575;stroke-linejoin:round;fill-opacity:0.49677420;"
     d="M 8.5279429,58.787523 C 8.5279429,62.918919 8.5279429,71.181713 8.5279429,75.313108 C 16.608786,75.313108 125.70019,75.313108 158.02358,75.313108 C 134.49373,63.647652 85.295970,46.393335 73.174703,38.130543 C 73.174703,50.524731 73.174703,54.656127 73.174703,62.918920 C 57.013012,62.918920 12.568364,58.787523 8.5279429,58.787523 z "
     id="path828"
     sodipodi:nodetypes="cccccc" />
  <path
     style="fill:#000000;fill-rule:evenodd;stroke:none;stroke-width:2.8826575;stroke-linejoin:round;fill-opacity:0.49677420;"
     d="M 8.5279429,91.838691 C 8.5279429,87.707296 8.5279429,79.444504 8.5279429,75.313108 C 16.608786,75.313108 125.70019,75.313108 158.02358,75.313108 C 134.49373,84.304636 85.295970,104.23288 73.174703,112.49568 C 73.174703,100.10148 73.174703,95.970089 73.174703,87.707296 C 57.013012,87.707296 12.568364,91.838691 8.5279429,91.838691 z "
     id="path829"
     sodipodi:nodetypes="cccccc" />
  <path
     style="fill:#f0f0f3;fill-rule:evenodd;stroke:#000000;stroke-width:2.8826575;stroke-linejoin:round;"
     d="M 4.9850225,54.561202 C 4.9850225,58.692598 4.9850225,66.955392 4.9850225,71.086787 C 13.065866,71.086787 122.15727,71.086787 154.48066,71.086787 C 130.95081,59.421331 81.753050,42.167014 69.631783,33.904222 C 69.631783,46.298410 69.631783,50.429806 69.631783,58.692599 C 53.470092,58.692599 9.0254440,54.561202 4.9850225,54.561202 z "
     id="path826"
     sodipodi:nodetypes="cccccc" />
  <path
     style="fill:#d4d9e1;fill-rule:evenodd;stroke:#000000;stroke-width:2.8826575;stroke-linejoin:round;"
     d="M 4.9850225,87.612370 C 4.9850225,83.480975 4.9850225,75.218183 4.9850225,71.086787 C 13.065866,71.086787 122.15727,71.086787 154.48066,71.086787 C 130.95081,80.078315 81.753050,100.00656 69.631783,108.26936 C 69.631783,95.875162 69.631783,91.743768 69.631783,83.480975 C 53.470092,83.480975 9.0254440,87.612370 4.9850225,87.612370 z "
     id="path827"
     sodipodi:nodetypes="cccccc" />
</svg>
