<?xml version="1.0" encoding="UTF-8" standalone="no"?>
<svg
   width="128"
   height="128"
   id="svg11300"
   version="1.0"
   style="display:inline;enable-background:new"
   viewBox="0 0 128 128"
   sodipodi:docname="org.xfce.session.svg"
   inkscape:version="1.2.2 (b0a8486541, 2022-12-01)"
   inkscape:export-filename="org.xfce.session.png"
   inkscape:export-xdpi="96"
   inkscape:export-ydpi="96"
   xmlns:inkscape="http://www.inkscape.org/namespaces/inkscape"
   xmlns:sodipodi="http://sodipodi.sourceforge.net/DTD/sodipodi-0.dtd"
   xmlns="http://www.w3.org/2000/svg"
   xmlns:svg="http://www.w3.org/2000/svg"
   xmlns:rdf="http://www.w3.org/1999/02/22-rdf-syntax-ns#">
  <sodipodi:namedview
     pagecolor="#ffffff"
     bordercolor="#666666"
     borderopacity="1"
     objecttolerance="10"
     gridtolerance="10"
     guidetolerance="10"
     inkscape:pageopacity="0"
     inkscape:pageshadow="2"
     inkscape:window-width="1322"
     inkscape:window-height="762"
     id="namedview44"
     showgrid="true"
     inkscape:zoom="10.760505"
     inkscape:cx="54.83014"
     inkscape:cy="65.935567"
     inkscape:window-x="542"
     inkscape:window-y="216"
     inkscape:window-maximized="0"
     inkscape:current-layer="svg11300"
     inkscape:lockguides="false"
     showguides="true"
     inkscape:guide-bbox="true"
     inkscape:showpageshadow="2"
     inkscape:pagecheckerboard="0"
     inkscape:deskcolor="#d1d1d1">
    <inkscape:grid
       type="xygrid"
       id="grid4761"
       empspacing="4" />
  </sodipodi:namedview>
  <title
     id="title4162">Adwaita Icon Template</title>
  <defs
     id="defs3">
    <linearGradient
       id="linearGradient1020"
       inkscape:swatch="gradient">
      <stop
         style="stop-color:#ffffff;stop-opacity:1;"
         offset="0"
         id="stop1016" />
      <stop
         style="stop-color:#ffffff;stop-opacity:0.09411765"
         offset="1"
         id="stop1018" />
    </linearGradient>
  </defs>
  <metadata
     id="metadata4">
    <rdf:RDF />
  </metadata>
  <rect
     style="display:inline;opacity:1;fill:#006888;fill-opacity:1;stroke:none;stroke-width:1;stroke-linecap:butt;stroke-linejoin:miter;stroke-miterlimit:4;stroke-dasharray:none;stroke-dashoffset:0;stroke-opacity:1;marker:none;marker-start:none;marker-mid:none;marker-end:none;paint-order:normal;enable-background:new"
     id="rect879"
     width="104"
     height="100"
     x="12"
     y="16"
     rx="8"
     ry="8" />
  <rect
     ry="8"
     rx="8"
     y="12"
     x="12"
     height="100"
     width="104"
     id="rect1711-3"
     style="display:inline;opacity:1;fill:#00aade;fill-opacity:1;stroke:none;stroke-width:1;stroke-linecap:butt;stroke-linejoin:miter;stroke-miterlimit:4;stroke-dasharray:none;stroke-dashoffset:0;stroke-opacity:1;marker:none;marker-start:none;marker-mid:none;marker-end:none;paint-order:normal;enable-background:new" />
  <path
     style="display:inline;fill:#ec866a;fill-opacity:1;stroke:none;stroke-width:1;stroke-linecap:butt;stroke-miterlimit:4;stroke-dasharray:none;stroke-opacity:1;enable-background:new"
     d="m 64.000012,107.99998 c -0.01437,0.0309 -9.294481,-28.999994 -9.294481,-28.999994 h 9.53904 9.755443 c 0.747238,18.876985 -6.214335,20.615662 -10.000002,28.999994 z"
     id="path1094-6-753"
     inkscape:connector-curvature="0"
     sodipodi:nodetypes="ccccc" />
  <path
     style="display:inline;fill:#ec866a;fill-opacity:1;stroke:none;stroke-width:1;stroke-linecap:butt;stroke-miterlimit:4;stroke-dasharray:none;stroke-opacity:1;enable-background:new"
     d="m 64.000012,107.99998 c 0.01436,0.0309 10.000002,-28.999994 10.000002,-28.999994 H 64.244571 54.00001 c -0.747239,18.876985 6.214335,20.615662 10.000002,28.999994 z"
     id="path1094-6-1-5"
     inkscape:connector-curvature="0"
     sodipodi:nodetypes="ccccc" />
  <path
     sodipodi:nodetypes="ccccc"
     inkscape:connector-curvature="0"
     id="path1094-6-1-9-91-9"
     d="M 64,96 C 63.98864,96.01428 57.000006,79 57.000006,79 H 63.637086 71 c 0.591011,8.712449 -4.005814,13.13031 -7,17 z"
     style="display:inline;opacity:1;fill:#f9da02;fill-opacity:1;stroke:none;stroke-width:0.07292595;stroke-linecap:butt;stroke-miterlimit:4;stroke-dasharray:none;stroke-opacity:1;enable-background:new" />
  <path
     sodipodi:nodetypes="ccccc"
     inkscape:connector-curvature="0"
     id="path1094-6-1-9-91"
     d="m 64,96 c 0.01136,0.01428 7,-17 7,-17 H 64.36292 57.000006 C 56.408995,87.712449 61.005814,92.13031 64,96 Z"
     style="display:inline;opacity:1;fill:#f9da02;fill-opacity:1;stroke:none;stroke-width:1;stroke-linecap:butt;stroke-miterlimit:4;stroke-dasharray:none;stroke-opacity:1;enable-background:new" />
  <path
     inkscape:connector-curvature="0"
     id="path1108-1"
     d="m 40,72 4.806919,-4.412125 C 48.486548,63.90858 50.751555,61.917147 50.776641,62 c 0.02174,0.07191 0.103004,0.678065 0.180521,1.347016 0.399495,3.447785 1.353201,7.627678 2.792506,11.466784 C 54.171741,75.939613 54.100447,75.878976 54,76 49.364033,79.705346 44.663919,84.329905 40,88 Z"
     style="display:inline;opacity:1;fill:#e6461d;fill-opacity:1;stroke:none;stroke-width:1;stroke-linecap:butt;stroke-miterlimit:4;stroke-dasharray:none;stroke-opacity:1;enable-background:new"
     sodipodi:nodetypes="cccccccc" />
  <path
     inkscape:connector-curvature="0"
     id="path1108-1-8"
     d="M 88,72 83.193081,67.587875 C 79.513452,63.90858 77.248445,61.917147 77.223359,62 77.201619,62.07191 77.120355,62.678065 77.042838,63.347016 76.643343,66.794801 75.689637,70.974694 74.250332,74.8138 73.828259,75.939613 73.899553,75.878976 74,76 c 4.635967,3.705346 9.336081,8.329905 14,12 z"
     style="display:inline;opacity:1;fill:#e6461d;fill-opacity:1;stroke:none;stroke-width:1;stroke-linecap:butt;stroke-miterlimit:4;stroke-dasharray:none;stroke-opacity:1;enable-background:new"
     sodipodi:nodetypes="cccccccc" />
  <path
     inkscape:connector-curvature="0"
     id="path1096-0"
     d="m 53.503726,74.441203 c -1.69346,-4.340846 -2.28926,-7.423264 -2.842717,-12.5366 -0.18547,-1.713478 -0.156925,-7.727495 0.04554,-9.59499 0.519765,-4.794321 1.462044,-9.877311 3.059976,-14.68792 L 54.460962,36 H 64 73.539034 l 0.495217,0.998928 c 0.860802,2.42071 1.816405,6.76569 2.355412,9.454573 0.690965,3.447016 1.029156,6.454847 1.109224,9.865274 0.154823,6.594929 -0.549961,11.852411 -2.973694,18.122415 L 74,76 H 64 54 Z"
     style="display:inline;opacity:1;fill:#f1f3f5;fill-opacity:1;stroke:none;stroke-width:1;stroke-linecap:butt;stroke-miterlimit:4;stroke-dasharray:none;stroke-opacity:1;enable-background:new"
     sodipodi:nodetypes="ccccccccccccccc" />
  <path
     d="M 70.000016,48 A 6.0000005,6 0 0 1 64.003471,53.999999 6.0000005,6 0 0 1 58.000019,48.006911 6.0000005,6 0 0 1 63.989648,42.000009 6.0000005,6 0 0 1 70,47.986177"
     sodipodi:open="true"
     sodipodi:end="6.2808815"
     sodipodi:start="0"
     sodipodi:ry="6"
     sodipodi:rx="6.0000005"
     sodipodi:cy="48"
     sodipodi:cx="64.000015"
     sodipodi:type="arc"
     id="path1110-7-87"
     style="display:inline;opacity:1;fill:#bcc5ca;fill-opacity:1;stroke:none;stroke-width:1;stroke-linecap:butt;stroke-miterlimit:4;stroke-dasharray:none;stroke-opacity:1;enable-background:new" />
  <path
     d="m 69,48 a 5,5 0 0 1 -4.99712,4.999999 5,5 0 0 1 -5.002877,-4.994239 5,5 0 0 1 4.991358,-5.005753 5,5 0 0 1 5.008626,4.988474"
     sodipodi:open="true"
     sodipodi:end="6.2808815"
     sodipodi:start="0"
     sodipodi:ry="5"
     sodipodi:rx="5"
     sodipodi:cy="48"
     sodipodi:cx="64"
     sodipodi:type="arc"
     id="path1110-9"
     style="display:inline;opacity:1;fill:#00aade;fill-opacity:1;stroke:none;stroke-width:1;stroke-linecap:butt;stroke-miterlimit:4;stroke-dasharray:none;stroke-opacity:1;enable-background:new" />
  <rect
     y="61"
     x="63"
     height="27"
     width="2"
     id="rect1127-2"
     style="display:inline;opacity:1;fill:#e6461d;fill-opacity:1;stroke:none;stroke-width:1;stroke-linecap:butt;stroke-miterlimit:4;stroke-dasharray:none;stroke-opacity:1;enable-background:new" />
  <path
     sodipodi:nodetypes="cccc"
     inkscape:connector-curvature="0"
     id="path1094-02"
     d="m 64,20 9.539034,16 H 54.460962 Z"
     style="display:inline;opacity:1;fill:#e6461d;fill-opacity:1;stroke:none;stroke-width:1;stroke-linecap:butt;stroke-miterlimit:4;stroke-dasharray:none;stroke-opacity:1;enable-background:new" />
</svg>
